HIERARCHY
ROOT Hips
{
  OFFSET -7.40212 95.167 140.741
  CHANNELS 6 Xposition Yposition Zposition Zrotation Xrotation Yrotation
  JOINT RightUpLeg
  {
    OFFSET -8.9458 -8.66707 0.101652
    CHANNELS 3 Zrotation Xrotation Yrotation
    JOINT RightLeg
    {
      OFFSET 0 -44.4227 1.3727
      CHANNELS 3 Zrotation Xrotation Yrotation
      JOINT RightFoot
      {
        OFFSET 0.253549 -42.0924 -1.46059
        CHANNELS 3 Zrotation Xrotation Yrotation
        JOINT RightToes
        {
          OFFSET 0.04 -4.41509 8.4991
          CHANNELS 3 Zrotation Xrotation Yrotation
          End Site
          {
            OFFSET -0.08 -0.137448 9.77979
          }
        }
      }
    }
  }
  JOINT Spine
  {
    OFFSET 0 11.8905 0
    CHANNELS 3 Zrotation Xrotation Yrotation
    JOINT Spine1
    {
      OFFSET 0 25.6574 0.127663
      CHANNELS 3 Zrotation Xrotation Yrotation
      JOINT HEad
      {
        OFFSET 0 8.73416 0.011341
        CHANNELS 3 Zrotation Xrotation Yrotation
        End Site
        {
          OFFSET -0.29 12.7742 2.51395
        }
      }
      JOINT LeftShoulder1
      {
        OFFSET 8.99 -0.362252 -0.22
        CHANNELS 3 Zrotation Xrotation Yrotation
        JOINT LeftArm
        {
          OFFSET 10.2827 -0.00338 0.322123
          CHANNELS 3 Zrotation Xrotation Yrotation
          JOINT LeftForeArm
          {
            OFFSET 32.7669 0.099144 -1.42434
            CHANNELS 3 Zrotation Xrotation Yrotation
            JOINT LeftHand
            {
              OFFSET 27.5643 0.085362 1.02216
              CHANNELS 3 Zrotation Xrotation Yrotation
              End Site
              {
                OFFSET 16.7443 -0.6 1.50291
              }
            }
          }
        }
      }
      JOINT RightShoulder
      {
        OFFSET -8.99 -0.362252 -0.22
        CHANNELS 3 Zrotation Xrotation Yrotation
        JOINT RightArm
        {
          OFFSET -10.2827 -0.00338 0.322123
          CHANNELS 3 Zrotation Xrotation Yrotation
          JOINT RightForeArm
          {
            OFFSET -32.8971 0.099144 -1.42434
            CHANNELS 3 Zrotation Xrotation Yrotation
            JOINT RightHand
            {
              OFFSET -27.4921 0.085362 1.02216
              CHANNELS 3 Zrotation Xrotation Yrotation
              End Site
              {
                OFFSET -16.6312 -0.6 1.50291
              }
            }
          }
        }
      }
    }
  }
  JOINT LeftUpLeg
  {
    OFFSET 8.9458 -8.66707 0.101652
    CHANNELS 3 Zrotation Xrotation Yrotation
    JOINT LeftLeg
    {
      OFFSET 0 -44.4227 1.3727
      CHANNELS 3 Zrotation Xrotation Yrotation
      JOINT LeftFoot
      {
        OFFSET -0.253549 -42.0924 -1.46059
        CHANNELS 3 Zrotation Xrotation Yrotation
        JOINT LeftToes
        {
          OFFSET -0.04 -4.41509 8.4991
          CHANNELS 3 Zrotation Xrotation Yrotation
          End Site
          {
            OFFSET 0.08 -0.047448 9.77979
          }
        }
      }
    }
  }
}
MOTION
Frames:	22
Frame Time:	0.0166667
-12.4881 72.5916 100.404 -0.242095 5.84943 -99.5201 -5.75701 -59.7298 14.2032 4.39099 59.6218 -13.9512 36.9887 50 -19.3794 -107.664 -56.2541 -39.0253 3.77684 15.0597 -14.1369 6.97496 27.3338 -31.8236 -4.39383 -16.2223 30.4519 3.18055e-015 -1.59028e-015 -9.54166e-015 5.11548 -25.0109 -86.3521 25.4746 12.2639 -33.672 -17.3634 6.53317 25.4052 21.4327 -1.27931 -7.83358 89.426 -44.0318 87.0472 -10.4283 15.2534 160.932 42.4876 -5.18858 -41.0279 41.0962 6.34794 -8.72234 -35.3956 55.8544 48.7331 14.7793 16.5936 -3.24806 48.4321 -38.0618 39.5004 
-12.7095 73.0982 101.136 -0.911716 5.14387 -98.2133 -9.16725 -58.1737 11.8498 4.24218 58.8546 -13.707 36.7998 49.9296 -19.2489 -106.987 -56.0539 -38.7091 4.17445 15.0809 -13.3259 7.1864 27.4177 -29.9879 -4.49997 -15.5555 27.0967 1.59028e-015 -3.18055e-015 -9.54166e-015 -11.0699 -24.5815 -88.764 25.8146 15.7807 -52.301 -17.5787 6.72025 24.0268 21.4173 -1.36596 -8.20566 94.8168 -46.9069 91.0538 -9.73333 18.2179 161.46 41.8182 -4.56947 -40.2052 41.1675 4.86622 -8.37477 -34.996 57.6682 41.4953 9.88817 21.3011 -2.6407 52.5679 -39.4175 42.4661 
-12.8497 73.7266 101.795 -1.47015 4.18282 -96.5656 -12.7569 -56.5102 10.061 5.0302 57.9465 -14.6111 35.5577 49.6876 -18.4766 -105.14 -55.5634 -37.8006 4.31141 15.0564 -12.6728 6.89102 27.4847 -28.3836 -4.41398 -15.386 23.4943 -6.36111e-015 -9.54166e-015 -3.18055e-015 -26.0986 -23.9672 -89.3256 25.5168 22.4717 -70.3286 -18.8953 6.39908 24.5195 21.4097 -1.36114 -8.18706 98.4654 -49.1432 93.3313 -9.27894 20.1948 161.515 40.7375 -3.94236 -39.6838 41.453 2.65021 -7.31092 -33.7624 59.8081 32.256 2.67026 26.7803 -0.979073 57.0331 -41.8645 43.7467 
-12.8986 74.472 102.427 -1.93149 2.98261 -94.8734 -16.0834 -54.7222 9.14015 6.1466 56.7844 -15.9675 33.7471 49.2678 -17.3458 -102.264 -54.8723 -36.3194 4.08922 14.9994 -12.0337 5.95082 27.5837 -26.742 -3.97833 -15.59 19.377 3.18055e-015 -1.59028e-015 -9.54166e-015 -37.16 -23.9502 -87.1587 26.3174 29.0708 -86.6139 -19.6646 6.00861 25.869 21.3045 -1.26429 -7.79989 100.292 -51.434 93.4158 -8.92799 21.0413 161.425 39.3351 -3.35034 -39.494 41.8483 0.059504 -6.03683 -32.3557 61.5608 22.3561 -6.69974 32.6093 2.15 60.2407 -45.6582 41.5069 
-12.86 75.3482 103.08 -2.35417 1.5461 -93.333 -18.9282 -52.7503 8.95498 6.66722 55.2971 -16.683 32.2036 48.6245 -16.3104 -98.6065 -54.1907 -34.2368 3.4462 14.9325 -11.2531 4.3836 27.7701 -24.8015 -3.1742 -16.0426 14.4742 -1.59028e-015 7.95139e-016 3.18055e-015 -44.1492 -25.0213 -82.8734 28.9212 33.6677 -101.779 -19.8072 5.64586 27.6542 21.0171 -1.08621 -7.09897 101.082 -54.3818 91.9059 -8.64091 20.7425 161.412 37.7119 -2.7369 -39.4248 42.2444 -2.52583 -4.93881 -31.5897 62.343 13.3759 -17.2818 38.11 6.75546 60.2695 -50.2116 34.8386 
-12.7392 76.361 103.795 -2.69369 -0.108626 -91.989 -21.377 -50.6259 9.1281 6.10721 53.4553 -16.085 31.5218 47.7096 -15.6693 -94.1725 -53.6454 -31.3856 2.41256 14.8848 -10.2313 2.32951 28.0701 -22.3823 -2.03342 -16.671 8.55351 3.08973e-031 5.56597e-015 -3.18055e-015 -41.3792 -23.9375 -74.6341 31.1226 28.9572 -110.915 -21.057 5.03429 29.3735 20.7887 -0.91215 -6.38807 101.967 -58.1574 90.1699 -8.42071 19.6695 161.486 35.8252 -1.98776 -39.2164 42.5588 -5.02862 -4.06077 -31.9241 62.0459 6.73102 -27.1919 42.3547 11.9367 57.2487 -54.0331 25.8029 
-12.5125 77.4872 104.638 -2.79272 -1.86448 -90.7365 -23.7029 -48.4572 9.31217 4.75947 51.1629 -14.3439 31.6815 46.5628 -15.4042 -88.6634 -53.0849 -27.5805 1.23129 14.8777 -8.97718 0.0199498 28.4321 -19.432 -0.542197 -17.4092 1.64813 -7.95139e-016 7.55382e-015 -0 -37.9102 -22.0559 -66.9848 31.6621 23.2978 -116.856 -22.2731 4.58996 30.1408 21.0512 -0.864643 -6.13498 105.36 -62.6958 90.9637 -8.15747 19.1814 161.55 33.4781 -0.988982 -38.6937 42.7899 -7.68779 -3.17283 -33.027 60.9363 3.33715 -33.7142 45.0343 15.8424 54.3066 -56.5376 18.668 
-12.1621 78.7054 105.661 -2.50864 -3.53334 -89.4212 -26.0918 -46.3144 9.32134 3.16938 48.3047 -11.9684 32.3465 45.3135 -15.3591 -81.7883 -52.1361 -22.8198 0.206926 14.8796 -7.5728 -2.27573 28.7145 -16.0666 1.2504 -18.1391 -5.90463 -1.59028e-015 -1.98785e-016 -0 -35.6662 -20.0991 -61.1535 30.1235 19.1136 -120.36 -22.8019 4.56444 29.6804 21.9724 -1.00561 -6.56877 115.439 -67.6053 98.6849 -7.71321 20.7813 161.508 30.6282 0.252912 -37.8001 43.0099 -10.661 -2.0218 -34.0146 59.2074 3.61153 -34.9622 46.9415 17.1073 54.4126 -58.4722 16.2496 
-11.7112 79.994 106.877 -1.80563 -4.94931 -87.9249 -28.5471 -44.2215 9.07517 1.62823 44.9214 -9.28332 33.3212 44.053 -15.4489 -73.5096 -50.393 -17.3239 -0.498867 14.8217 -6.12364 -4.33137 28.7777 -12.5493 3.1576 -18.7154 -13.6204 1.59028e-015 4.12478e-015 3.18055e-015 -34.6848 -18.3251 -57.281 26.9253 16.7789 -122.344 -22.1946 4.97279 28.4266 23.3814 -1.31852 -7.55853 135.368 -71.2399 116.791 -7.13674 24.4497 161.219 27.5339 1.56832 -36.6649 43.3055 -13.852 -0.533334 -34.0819 56.8741 7.24669 -30.9183 48.7728 15.5608 58.1096 -60.2103 18.6369 
-11.2158 81.3408 108.234 -0.758664 -6.01989 -86.2323 -30.9404 -42.2144 8.55692 0.21579 41.2209 -6.56478 34.5301 42.8214 -15.6404 -64.1376 -47.5517 -11.5181 -0.983519 14.6537 -4.71597 -6.02486 28.5871 -9.20312 4.95315 -19.0494 -20.9258 -1.19271e-015 -7.25564e-015 1.59028e-015 -34.4789 -16.7094 -55.1325 23.2544 15.4413 -123.884 -20.4338 5.65208 26.9341 24.9708 -1.73052 -8.77577 159.553 -71.8128 139.87 -6.61982 28.7263 160.589 24.64 2.72198 -35.5874 43.6375 -16.9847 1.19515 -32.6171 53.8863 12.5381 -23.0156 50.1494 11.7148 62.8708 -61.2205 23.0293 
-10.7107 82.7174 109.67 0.494178 -6.67646 -84.4544 -33.1081 -40.4257 7.78671 -0.938837 37.505 -4.31777 35.8037 41.7412 -15.8891 -54.3203 -43.5256 -5.97094 -1.36191 14.3847 -3.44534 -7.3118 28.2117 -6.30145 6.45704 -19.1641 -27.196 7.95139e-016 -5.46658e-016 -7.95139e-016 -34.7018 -15.2708 -54.3532 20.4878 13.9298 -125.883 -17.9798 6.37672 25.6371 26.3416 -2.11592 -9.82561 177.42 -70.5523 157.072 -6.31373 32.0693 159.714 22.3643 3.54362 -34.8881 43.8173 -19.7721 2.9669 -29.2428 50.225 16.7187 -14.1934 50.3969 7.08887 64.9521 -61.2478 25.3878 
-10.1924 84.0361 111.192 1.79489 -6.86517 -82.8226 -34.9597 -39.127 6.67174 -1.65418 34.1994 -2.99035 36.887 40.9977 -16.144 -44.9909 -38.6526 -1.22436 -1.55602 14.0559 -2.38462 -8.17396 27.746 -3.97399 7.54752 -19.1913 -31.9756 -7.95139e-016 5.66536e-015 -1.39149e-015 -35.3622 -14.1287 -54.558 19.3783 11.4518 -128.716 -15.6107 6.91497 25.0663 27.0581 -2.32832 -10.3734 -171.932 -69.9437 166.893 -6.26177 33.6634 158.813 20.8855 3.99398 -34.741 43.6573 -21.9693 4.48922 -24.1031 45.8197 17.6169 -7.76045 49.8988 3.68158 63.3366 -60.5696 24.3981 
-9.65958 85.1806 112.861 2.98067 -6.5566 -81.6171 -36.438 -38.6155 4.95445 -1.8028 31.8579 -2.64479 37.5948 40.6885 -16.3659 -37.4 -33.9664 2.38073 -1.37407 13.6947 -1.51287 -8.6167 27.2502 -2.15968 8.18201 -19.298 -35.2137 -6.41396e-032 -4.62174e-015 -7.95139e-016 -36.5862 -13.3044 -55.4277 19.7829 7.76935 -132.058 -14.0981 7.12074 25.6236 26.9198 -2.30434 -10.329 -165.491 -71.0477 171.941 -6.4414 33.4428 158.045 20.0925 4.14802 -35.0911 43.1479 -23.288 5.40426 -17.936 40.492 14.75 -5.40793 49.6958 2.45559 59.6475 -59.3606 21.6004 
-9.13038 86.0246 114.781 3.9161 -5.79645 -81.0484 -37.5811 -39.1 2.37294 -1.27759 31.129 -3.02016 37.9837 40.6992 -16.5507 -32.8351 -31.0332 4.87324 -0.78774 13.3415 -0.71791 -8.71462 26.7539 -0.652466 8.42284 -19.5537 -37.2436 -1.59028e-015 1.03368e-014 -0 -38.4161 -12.7167 -56.7843 21.0115 3.37152 -135.139 -13.7738 6.99274 27.0695 26.1948 -2.13339 -9.92756 -162.113 -73.6453 173.512 -6.80464 31.9404 157.422 19.7802 4.11937 -35.6937 42.4142 -23.4941 5.45028 -11.7652 34.3361 8.98392 -7.25083 50.1823 3.43639 55.7702 -57.6989 18.9918 
-8.6382 86.4717 117.04 4.51519 -4.71721 -81.1449 -38.5939 -40.5598 -1.11208 0.080413 32.558 -3.86237 38.3662 40.7561 -16.7496 -31.9717 -31.0145 6.47117 0.0311748 13.0819 0.0816877 -8.61157 26.2905 0.733484 8.42471 -19.8626 -38.4916 3.18055e-015 -7.95139e-016 -7.95139e-016 -40.8057 -12.3648 -58.5139 22.3388 -0.567403 -137.312 -14.2698 6.67516 28.6573 25.4249 -1.95727 -9.49803 -162.723 -76.9211 171.173 -7.27875 30.0172 156.915 19.9242 3.96356 -36.2728 41.6019 -22.589 4.50854 -6.4641 28.0212 1.80731 -12.3277 50.7949 6.15445 52.8935 -55.7708 17.8603 
-8.21148 86.5619 119.549 4.68049 -3.46288 -81.7613 -39.6191 -42.5867 -5.15002 2.55479 36.1703 -5.29087 38.9704 40.6337 -16.9877 -34.5061 -33.8102 7.08526 1.17092 12.9286 0.847995 -8.3914 25.8769 2.00931 8.3549 -20.0508 -39.2284 2.26213e-031 8.15017e-015 -1.59028e-015 -43.6893 -12.3594 -60.482 23.2676 -2.79201 -138.401 -14.8304 6.38768 29.8158 24.9857 -1.83595 -9.16461 -169.427 -79.9922 163.144 -7.7958 28.3535 156.581 20.6776 3.65641 -36.6823 40.8723 -20.5944 2.49777 -2.5882 22.1998 -4.7765 -18.4425 50.9583 9.43291 51.7317 -53.98 18.7699 
-7.85473 86.3218 122.192 4.37186 -2.29846 -82.5756 -41.0016 -44.5321 -9.31994 6.59231 41.4661 -7.62387 39.8742 40.0367 -17.188 -39.3067 -38.0874 6.3853 2.36832 12.9069 1.46698 -8.14431 25.5389 3.03796 8.2811 -19.9913 -39.5931 3.18055e-015 7.95139e-016 -0 -46.9761 -12.6672 -62.5412 23.5887 -2.71598 -138.542 -14.9097 6.28035 30.4357 24.9217 -1.75009 -8.86079 175.644 -82.2292 147.298 -8.31648 27.0971 156.526 22.085 3.17353 -36.9482 40.2067 -18.104 -0.563165 -0.394305 18.1165 -8.39945 -22.502 50.3896 11.4934 52.8387 -52.7762 21.9273 
-7.58268 85.8252 124.791 3.58502 -1.37904 -83.2444 -42.63 -45.7076 -13.1585 12.4948 47.4145 -11.0659 40.9924 38.7093 -17.199 -44.7748 -42.1752 4.56067 3.33295 12.9614 1.80119 -7.89967 25.2696 3.68032 8.15799 -19.6537 -39.6806 -2.42765e-031 -8.74653e-015 -1.59028e-015 -50.5363 -13.0336 -64.5484 23.384 -0.635013 -137.93 -14.4493 6.35975 30.642 25.0732 -1.66113 -8.49335 151.506 -83.3761 122.508 -8.81641 25.859 156.78 23.897 2.55898 -37.1981 39.5369 -15.8138 -4.24517 0.253856 16.5894 -7.59062 -22.081 49.2424 11.024 56.522 -52.2351 27.4206 
-7.42394 85.1746 127.182 2.35883 -0.717722 -83.5977 -43.7467 -45.7246 -16.2233 19.6315 52.8632 -15.2137 42.1849 36.6878 -16.9471 -49.4861 -45.1656 2.46617 3.82308 12.9946 1.78923 -7.65615 25.0534 3.895 7.94126 -19.108 -39.5255 3.18055e-015 5.96354e-016 -0 -54.2731 -13.2402 -66.4253 22.9231 2.67805 -136.785 -13.7328 6.53428 30.6043 25.2733 -1.55185 -8.04397 120.561 -83.0451 91.0814 -9.29189 24.0764 157.226 25.7073 1.90822 -37.5376 38.8229 -13.9212 -7.58714 -0.152505 17.1928 -2.89087 -16.8345 47.5717 8.03069 61.9431 -51.9805 34.2686 
-7.37771 84.3968 129.372 0.77722 -0.398907 -83.7492 -43.8253 -44.6565 -18.2593 26.3278 57.0925 -19.3369 42.9005 34.6353 -16.4446 -53.4718 -47.2362 0.251387 3.76112 12.991 1.53381 -7.41568 24.9045 3.74812 7.6997 -18.5211 -39.1067 1.59028e-015 1.98785e-016 -1.59028e-015 -58.0754 -13.182 -68.18 22.5332 6.38045 -135.362 -13.0793 6.70295 30.4894 25.4684 -1.43922 -7.58934 94.795 -80.7299 65.0034 -9.7623 21.5548 157.663 27.1962 1.31945 -37.965 37.8955 -12.4288 -9.66161 -0.880998 19.4073 3.50417 -8.44279 44.851 3.65208 66.8828 -51.7035 40.1138 
-7.41659 83.5843 131.388 -0.971577 -0.396482 -83.8914 -42.854 -42.8305 -18.9655 31.1976 59.5965 -23.6801 41.888 33.8146 -15.7068 -58.7908 -48.9744 -3.77531 3.30228 12.9799 1.17872 -7.20382 24.8484 3.36315 7.59496 -18.1137 -38.4303 3.08973e-031 1.11319e-014 -1.59028e-015 -61.7068 -12.7671 -69.8178 22.4922 9.71704 -133.912 -12.6794 6.80707 30.4048 25.6706 -1.35528 -7.24373 80.938 -77.0759 50.9763 -10.2079 18.7421 157.956 28.2354 0.860634 -38.3966 36.7952 -11.0766 -10.1678 -1.325 22.1839 9.2019 0.219242 41.2769 -0.363889 70.0686 -51.3061 43.9597 
-7.50653 82.8802 133.242 -2.65258 -0.621938 -84.1542 -41.3869 -40.6649 -18.1736 34.076 60.077 -28.9137 37.952 34.983 -14.5268 -66.6701 -50.0025 -11.0452 2.72841 12.9842 0.816449 -7.05993 24.8771 2.85343 7.72782 -18.0432 -37.5569 -1.59028e-015 -5.56597e-015 7.95139e-016 -64.9079 -11.9853 -71.2786 22.8973 12.214 -132.673 -12.6023 6.82784 30.3822 25.8529 -1.31718 -7.07208 75.1925 -73.3076 45.057 -10.5322 16.4364 158.132 28.8746 0.549576 -38.7416 35.7086 -9.74849 -9.65011 -1.46235 24.7008 12.9549 6.98066 37.7025 -3.03653 71.8272 -50.6071 46.6457 
